<svg width="2000" height="2000" viewBox="0 0 2000 2000" fill="none" xmlns="http://www.w3.org/2000/svg">
<path fill-rule="evenodd" clip-rule="evenodd" d="M1269.96 433.288V437.577L1298.83 438.113L1327.7 438.649L1345.08 439.431L1362.45 440.214L1376.76 441.42L1391.07 442.627L1401.27 444.234L1411.48 445.842L1417.52 448.355L1423.57 450.869L1425.48 454.224L1427.38 457.58L1428.43 468.193L1429.47 478.806L1429.16 702.735L1428.85 926.664L1427.54 929.642L1426.23 932.621L1424.38 933.396L1422.53 934.17L1411.91 934.694L1401.29 935.219L1386.47 934.301L1371.65 933.384L1361.43 931.769L1351.21 930.154L1342.01 927.775L1332.81 925.397L1323.62 921.921L1314.42 918.445L1305.44 913.457L1296.45 908.469L1287.55 901.176L1278.65 893.882L1272.87 887.561L1267.09 881.24L1260.9 872.545L1254.71 863.85L1249.96 855.412L1245.2 846.974L1240.15 836.29L1235.1 825.607L1229.62 810.701L1224.14 795.795L1220.02 781.539L1215.9 767.284L1212.87 754.533L1209.84 741.783L1207.68 730.626L1205.51 719.47L1205.02 717.677L1204.52 715.884H1197.39H1190.25V829.442V943H1492.75H1795.25V830.204V717.407L1787.95 717.642L1780.65 717.876L1777.71 731.423L1774.77 744.971L1771.16 758.916L1767.55 772.862L1762.57 788.402L1757.59 803.941L1752.96 815.561L1748.33 827.181L1744.84 834.687L1741.35 842.192L1737.01 850.161L1732.66 858.13L1728.22 865.031L1723.79 871.93L1718.72 878.614L1713.66 885.298L1706.59 892.434L1699.52 899.571L1691.55 905.372L1683.58 911.173L1675.8 915.183L1668.02 919.194L1659.84 922.291L1651.67 925.387L1642.47 927.77L1633.27 930.152L1623.05 931.803L1612.83 933.453L1596.48 934.361L1580.13 935.268L1570.14 934.676L1560.15 934.083L1558.59 931.732L1557.03 929.381L1556.07 922.842L1555.11 916.304L1555.11 696.758L1555.11 477.212L1556.14 468.133L1557.17 459.052L1559.11 455.636L1561.04 452.22L1565.39 449.766L1569.74 447.312L1576.27 445.737L1582.81 444.163L1596.8 442.601L1610.79 441.038L1624.07 440.191L1637.36 439.343L1667 438.572L1696.63 437.8L1705.57 437.783L1714.52 437.766V433.383V429H1492.24H1269.96V433.288Z" fill="#282828"/>
<path fill-rule="evenodd" clip-rule="evenodd" d="M1543.86 1058.55V1063.09L1558.59 1063.75L1573.32 1064.4L1585.56 1065.39L1597.8 1066.38L1611.4 1068.41L1625.01 1070.44L1637.42 1073.34L1649.84 1076.24L1659.64 1079.38L1669.43 1082.52L1679.86 1087.06L1690.29 1091.59L1697.48 1095.58L1704.68 1099.56L1711.96 1104.54L1719.23 1109.52L1726.52 1115.81L1733.81 1122.1L1742.94 1132.57L1752.07 1143.04L1757.76 1152.43L1763.44 1161.81L1767.32 1170.36L1771.21 1178.92L1774.5 1188.66L1777.8 1198.41L1780.44 1210.34L1783.08 1222.27L1784.63 1235.12L1786.18 1247.97L1786.23 1267.49L1786.28 1287.01L1784.71 1296.52L1783.14 1306.02L1779.97 1316.49L1776.8 1326.97L1773.02 1334.78L1769.25 1342.6L1763.54 1350.99L1757.84 1359.38L1749.9 1367.59L1741.97 1375.8L1731.98 1383.15L1722 1390.5L1709.77 1396.95L1697.54 1403.4L1687.31 1407.52L1677.08 1411.64L1664.19 1415.66L1651.3 1419.68L1635.83 1423.12L1620.35 1426.56L1603.18 1429.08L1586.02 1431.61L1570.21 1433.1L1554.4 1434.6L1525.1 1435.74L1495.79 1436.89L1464.29 1435.75L1432.79 1434.61L1416.01 1433.11L1399.24 1431.61L1381.7 1429.1L1364.17 1426.6L1349.97 1423.54L1335.77 1420.49L1327.16 1418.09L1318.55 1415.7L1309.93 1412.77L1301.32 1409.83L1292.25 1406.11L1283.19 1402.39L1272.43 1396.51L1261.68 1390.63L1253.89 1384.86L1246.1 1379.08L1237.97 1370.58L1229.84 1362.07L1224.75 1354.53L1219.67 1346.98L1215.85 1338.89L1212.04 1330.79L1208.89 1320.41L1205.74 1310.03L1204.2 1300.52L1202.66 1291.01L1202.64 1275L1202.61 1258.98L1204.18 1250.14L1205.75 1241.29L1208.53 1232.12L1211.31 1222.95L1215.82 1212.95L1220.33 1202.94L1225.22 1194.8L1230.11 1186.67L1236.21 1178.29L1242.3 1169.91L1252.32 1158.9L1262.33 1147.89L1270.04 1141.08L1277.75 1134.27L1286.81 1127.47L1295.88 1120.66L1304.31 1115.56L1312.74 1110.45L1321.54 1106.03L1330.33 1101.61L1338.04 1098.51L1345.75 1095.42L1351.64 1093.44L1357.53 1091.46L1366.6 1088.95L1375.67 1086.44L1386.01 1084.39L1396.35 1082.34L1409.13 1080.91L1421.91 1079.48L1435.6 1078.8L1449.29 1078.12L1451.23 1073.72L1453.17 1069.32H1321.71H1190.25L1190.28 1071.58L1190.31 1073.83L1232.41 1098.85L1274.52 1123.87L1274.32 1124.5L1274.12 1125.12L1266.87 1131.44L1259.61 1137.75L1248.41 1149.83L1237.2 1161.9L1231.37 1169.91L1225.54 1177.92L1220.5 1186.28L1215.45 1194.64L1211.05 1204.29L1206.65 1213.95L1202.99 1226.05L1199.33 1238.16L1197.29 1250.57L1195.26 1262.99L1195.26 1287.51L1195.27 1312.03L1197.38 1325.04L1199.49 1338.05L1202.65 1349.56L1205.81 1361.07L1208.65 1369.08L1211.49 1377.08L1217.2 1389.5L1222.91 1401.92L1230.45 1414.52L1237.99 1427.12L1245.25 1437.13L1252.51 1447.14L1261.44 1458.02L1270.37 1468.89L1281.31 1479.88L1292.25 1490.86L1304.11 1500.73L1315.97 1510.61L1326.32 1517.71L1336.68 1524.81L1348.92 1531.65L1361.16 1538.49L1373.85 1544.05L1386.55 1549.61L1397.41 1553.23L1408.28 1556.84L1417.67 1559.29L1427.05 1561.74L1437.63 1563.74L1448.2 1565.74L1459.54 1567.3L1470.87 1568.86L1496.71 1569.43L1522.55 1570L1536.6 1568.83L1550.66 1567.65L1563.08 1565.73L1575.49 1563.82L1586.91 1561.22L1598.33 1558.62L1610.58 1554.67L1622.83 1550.71L1633.44 1546.1L1644.05 1541.49L1656.29 1534.65L1668.53 1527.81L1679.41 1519.94L1690.29 1512.07L1699.6 1503.79L1708.91 1495.51L1718.66 1484.75L1728.41 1473.99L1735.31 1464.57L1742.22 1455.15L1747.41 1447.14L1752.6 1439.13L1759.04 1427.12L1765.49 1415.11L1770.66 1402.6L1775.83 1390.09L1779.95 1376.78L1784.08 1363.47L1786.8 1351.26L1789.51 1339.05L1791.28 1327.04L1793.05 1315.03L1794.15 1300.74L1795.25 1286.46L1794.75 1263.21L1794.24 1239.97L1792.78 1229.46L1791.31 1218.95L1788.64 1206.71L1785.98 1194.46L1782.67 1184.69L1779.37 1174.91L1775.29 1165.91L1771.22 1156.9L1766.51 1148.89L1761.79 1140.88L1754.86 1131.77L1747.93 1122.65L1740.87 1115.66L1733.81 1108.66L1726.32 1102.57L1718.84 1096.47L1710.61 1091.35L1702.38 1086.23L1694.24 1082.27L1686.1 1078.32L1676.86 1074.77L1667.62 1071.22L1659.91 1068.87L1652.21 1066.52L1643.59 1064.42L1634.98 1062.33L1623.65 1060.35L1612.31 1058.37L1599.16 1056.82L1586.02 1055.27L1564.94 1054.63L1543.86 1054V1058.55Z" fill="#282828"/>
<path fill-rule="evenodd" clip-rule="evenodd" d="M1005.75 508.504L962.751 587.962L962.089 587.731L961.426 587.5L953.178 577L944.93 566.5L938.864 559.5L932.799 552.5L923.848 543L914.898 533.5L904.324 523.619L893.751 513.739L883.251 505.276L872.751 496.814L858.751 487.5L844.751 478.186L835.462 473.073L826.173 467.959L815.962 463.351L805.751 458.743L789.746 453.442L773.742 448.141L758.746 445.078L743.751 442.014L732.251 440.436L720.751 438.858L694.006 438.297L667.26 437.736L653.006 438.939L638.751 440.142L623.999 442.62L609.246 445.098L595.246 448.536L581.245 451.974L567.498 456.55L553.751 461.125L539.251 467.252L524.751 473.379L511.432 480.213L498.113 487.048L484.558 495.189L471.002 503.33L458.877 511.812L446.751 520.293L438.251 526.845L429.751 533.397L420.751 540.895L411.751 548.392L402.269 556.946L392.787 565.5L383.877 574L374.966 582.5L362.511 595.886L350.056 609.272L339.965 621.386L329.873 633.5L320.195 646.5L310.517 659.5L301.995 672.5L293.473 685.5L285.292 699.5L277.112 713.5L268.236 731.5L259.361 749.5L252.782 765.381L246.203 781.262L240.332 798.425L234.461 815.589L230.415 830.045L226.368 844.5L223.892 855L221.417 865.5L218.38 881L215.343 896.5L212.835 914L210.327 931.5L208.805 948L207.282 964.5L206.141 988L205 1011.5L205.641 1037L206.281 1062.5L207.285 1076.5L208.289 1090.5L209.809 1105L211.329 1119.5L213.341 1133.5L215.354 1147.5L218.355 1163L221.357 1178.5L225.734 1196L230.111 1213.5L235.79 1231L241.469 1248.5L247.411 1263.5L253.354 1278.5L261.671 1295.6L269.989 1312.71L276.206 1323.6L282.424 1334.5L293.766 1351.5L305.108 1368.5L315.49 1381.5L325.872 1394.5L336.433 1406.05L346.993 1417.6L359.372 1429.22L371.751 1440.85L382.251 1449.61L392.751 1458.38L403.751 1466.56L414.751 1474.74L427.751 1483.22L440.751 1491.7L451.625 1497.95L462.499 1504.2L479.553 1512.59L496.608 1520.98L511.951 1527.05L527.293 1533.12L539.522 1537.09L551.751 1541.07L566.251 1544.99L580.751 1548.92L595.251 1551.88L609.751 1554.85L623.251 1556.89L636.751 1558.93L651.385 1560.45L666.019 1561.98L690.208 1563.04L714.398 1564.1L736.058 1563.03L757.719 1561.96L770.735 1560.46L783.751 1558.95L792.751 1557.41L801.751 1555.87L813.413 1553.42L825.076 1550.96L838.81 1546.95L852.545 1542.93L866.648 1537.38L880.751 1531.82L893.751 1525.09L906.751 1518.36L916.251 1512.47L925.751 1506.57L937.744 1497.55L949.736 1488.52L964.007 1474.61L978.277 1460.71L986.514 1450.76L994.751 1440.81L1000.57 1432.69L1006.4 1424.56L1012 1415.53L1017.6 1406.5L1023.86 1394.5L1030.12 1382.5L1035.64 1369.82L1041.16 1357.14L1047.2 1339.5L1053.23 1321.85L1056.66 1309.18L1060.08 1296.5L1063.64 1280.5L1067.19 1264.5L1070.21 1246.13L1073.23 1227.76L1075.23 1210.13L1077.24 1192.5L1078.76 1173L1080.28 1153.5L1080.92 1122.71L1081.57 1091.91L1073.66 1092.21L1065.75 1092.5L1065.1 1121L1064.45 1149.5L1062.83 1170L1061.21 1190.5L1058.69 1210.78L1056.16 1231.06L1053.68 1245.28L1051.19 1259.5L1047.73 1275.05L1044.26 1290.61L1039.72 1306.44L1035.17 1322.28L1029.84 1336.89L1024.51 1351.5L1018.78 1364.5L1013.04 1377.5L1007.96 1387L1002.87 1396.5L997.443 1405.5L992.012 1414.5L986.461 1422.39L980.91 1430.29L972.21 1440.89L963.509 1451.5L950.63 1464.05L937.751 1476.59L929.251 1483.18L920.751 1489.76L909.751 1496.96L898.751 1504.15L882.246 1512.38L865.741 1520.61L853.086 1525.24L840.432 1529.87L827.591 1533.43L814.751 1536.98L804.751 1539.03L794.751 1541.08L781.751 1542.98L768.751 1544.88L755.251 1546.09L741.751 1547.3L717.751 1547.35L693.751 1547.4L683.751 1546.14L673.751 1544.88L661.414 1542.42L649.076 1539.95L636.914 1535.9L624.751 1531.84L612.467 1525.97L600.182 1520.1L589.967 1513.44L579.751 1506.77L570.522 1499.31L561.293 1491.84L550.439 1480.47L539.586 1469.11L530.668 1457.06L521.751 1445.02L514.918 1433.76L508.085 1422.5L500.252 1406.5L492.419 1390.5L485.93 1374L479.441 1357.5L474.28 1341.5L469.118 1325.5L463.731 1304.5L458.345 1283.5L455.345 1268.93L452.345 1254.36L449.346 1236.43L446.347 1218.5L444.338 1204L442.329 1189.5L440.294 1170L438.259 1150.5L436.797 1131L435.335 1111.5L434.058 1089.5L432.781 1067.5L432.783 999.5L432.785 931.5L434.055 907.5L435.325 883.5L437.321 857.5L439.318 831.5L441.335 813L443.353 794.5L445.824 777L448.295 759.5L450.84 745L453.386 730.5L456.373 716L459.361 701.5L463.912 683.5L468.463 665.5L473.451 649.5L478.439 633.5L484.476 618L490.513 602.5L497.248 588.378L503.983 574.256L509.755 564.378L515.527 554.5L521.06 546.5L526.592 538.5L532.671 531.005L538.751 523.51L545.627 516.256L552.503 509.003L560.695 502.047L568.888 495.092L579.819 487.789L590.751 480.487L602.521 474.677L614.291 468.867L629.021 464.029L643.751 459.192L654.251 457.126L664.751 455.059L673.751 453.78L682.751 452.5L707.751 452.544L732.751 452.587L742.751 454.327L752.751 456.067L762.725 458.58L772.699 461.093L781.725 464.171L790.751 467.249L803.429 472.983L816.106 478.717L827.591 485.386L839.076 492.055L850.097 499.778L861.117 507.5L874.367 518.5L887.618 529.5L901.684 543.523L915.751 557.545L926.637 570.251L937.523 582.957L944.505 592.229L951.487 601.5L958.203 611.5L964.919 621.5L971.737 633L978.555 644.5L987.423 662.481L996.291 680.462L1002.16 695.481L1008.04 710.5L1013.14 726.292L1018.23 742.084L1022.71 760.292L1027.19 778.5L1029.76 792.5L1032.33 806.5L1034.72 825.5L1037.11 844.5L1038.25 861L1039.39 877.5L1040.07 895.874L1040.75 914.248L1047.59 918.124L1054.42 922H1055.34H1056.25V675.5V429L1052.5 429.023L1048.75 429.045L1005.75 508.504Z" fill="#282828"/>
</svg>
